<svg xmlns="http://www.w3.org/2000/svg" viewBox="0 0 28.13 28.23"><defs><style>.cls-1{fill:#fff;}</style></defs><title>Datový zdroj 3</title><g id="Vrstva_2" data-name="Vrstva 2"><g id="Vrstva_1-2" data-name="Vrstva 1"><path class="cls-1" d="M25.16,5.45A14.1,14.1,0,0,0,16.06.19V.13L14.95.06h0L14.06,0V0A14,14,0,0,0,.42,10.7h0l-.16.87h0L0,12.68H.07A14,14,0,0,0,12.08,28v.06l1.12.07h0l.89.06v0A14,14,0,0,0,27.71,17.53h0l.16-.87h0l.2-1.1h-.06A14.1,14.1,0,0,0,25.16,5.45Zm.72,9.91-.5-.09-.7-.16-.5-.14-.67-.23L23,14.54l-.64-.29L21.93,14l-.61-.36-.42-.27c-.2-.14-.4-.29-.59-.44l-.38-.29c-.21-.18-.41-.37-.6-.56L19,11.8l-.15-.18,5.29-4.13a12.11,12.11,0,0,1,1.92,7.89Zm-3-9.44L17.64,10l-.13-.19c-.07-.11-.13-.24-.2-.35S17,9,16.91,8.79s-.13-.29-.2-.44-.2-.45-.29-.68-.11-.32-.16-.49-.14-.45-.2-.67S16,6.17,15.95,6s-.09-.45-.13-.68-.05-.35-.07-.52,0-.46-.06-.69,0-.35,0-.53,0-.47,0-.71,0-.34,0-.52,0-.13,0-.2A12.11,12.11,0,0,1,22.93,5.92ZM13.72,2.21c0,.19,0,.38,0,.57s0,.57,0,.86,0,.39,0,.59,0,.55.07.83.05.39.08.59.09.54.15.81.09.39.14.58.15.53.24.8.12.37.19.55.22.53.33.8.15.34.23.5.3.56.46.84.15.27.23.41l.24.36-1.83,1.43L7.44,4a12.06,12.06,0,0,1,6.29-2C13.72,2.09,13.72,2.15,13.72,2.21Zm-7.86,3,6.79,8.7-1.83,1.43-.29-.32-.34-.32c-.23-.22-.46-.44-.7-.65l-.43-.34c-.23-.18-.45-.35-.69-.52l-.49-.32c-.23-.15-.47-.29-.71-.42l-.53-.27-.74-.34-.55-.22-.78-.27L4,11.2c-.28-.07-.55-.13-.84-.19l-.56-.11-.18,0A12,12,0,0,1,5.86,5.24ZM2.05,12.85l.2,0,.51.1.7.16.5.14.67.23.48.19.64.29.46.24.61.36.42.27c.2.14.4.29.59.44l.38.29c.21.18.4.37.6.56l.29.28.15.17L4,20.73A12.06,12.06,0,0,1,2.05,12.85ZM5.2,22.31l5.28-4.12.13.19c.07.11.13.23.2.35s.27.47.4.72.13.29.2.44.2.45.29.68.11.32.16.48.15.45.21.68.08.34.12.5.09.46.13.69.05.34.07.52,0,.47.06.7,0,.35,0,.52,0,.48,0,.72,0,.34,0,.51,0,.13,0,.2A12.11,12.11,0,0,1,5.2,22.31ZM14.41,26c0-.2,0-.39,0-.59s0-.56,0-.83,0-.4,0-.61,0-.54-.07-.81-.05-.4-.09-.6-.09-.53-.15-.79-.09-.39-.14-.59-.15-.53-.24-.79-.12-.38-.19-.56-.22-.53-.33-.79-.15-.34-.23-.51-.3-.56-.46-.83-.15-.28-.23-.41l-.24-.36,1.83-1.43,6.8,8.7a12,12,0,0,1-6.29,2C14.4,26.14,14.4,26.08,14.41,26Zm7.85-3-6.8-8.7,1.83-1.43.29.32.34.32c.23.22.46.44.7.65l.43.34c.23.18.46.36.69.52l.49.31c.24.15.47.29.72.43l.52.27.75.35.55.22.79.27.56.17c.28.07.56.13.84.19l.56.11.17,0A12.06,12.06,0,0,1,22.26,23Z"/></g></g></svg>