<svg xmlns="http://www.w3.org/2000/svg" viewBox="0 0 47 28"><defs><style>.cls-1{fill:#fff;opacity:0.3;}</style></defs><title>bike</title><g id="Vrstva_2" data-name="Vrstva 2"><g id="Vrstva_1-2" data-name="Vrstva 1"><path class="cls-1" d="M38,10a8.43,8.43,0,0,0-1.52.13L33.76.72a1,1,0,0,0-1-.72H27a1,1,0,0,0,0,2h5.05l.41,1.44,0,0L31.11,5.76l-.28,0H15.55l-.37-.64h1.27a1,1,0,0,0,0-2h-5a1,1,0,0,0,0,2h1.43l.06.12.45.78a2,2,0,0,0-.74.74l-2,3.42A8.47,8.47,0,0,0,9,10a9,9,0,1,0,8.72,11.26h5.63a2,2,0,0,0,1.73-1L31.73,8.74a2.66,2.66,0,0,0,.12-.24h0L33.23,6.1l1.33,4.59A9,9,0,1,0,38,10ZM9,26A7,7,0,0,1,9,12a5.7,5.7,0,0,1,.59,0L6,18.26a2,2,0,0,0,1.73,3h7.89A7,7,0,0,1,9,26Zm7-6.74H7.73l3.89-6.75A7,7,0,0,1,16,19,2.17,2.17,0,0,1,16,19.26Zm2,0A2.26,2.26,0,0,0,18,19a9,9,0,0,0-5.37-8.23l1.75-3,.58,1a.9.9,0,0,1-.07-.14L18.57,15,21,19.26Zm8.88-6.1s0,0,0,0l-3.5,6.07-.58-1L20.31,14s0,0,0,0L16.7,7.75H30ZM38,26a7,7,0,0,1-2.88-13.37L37,19.28A1,1,0,0,0,38,20a1,1,0,0,0,.28,0A1,1,0,0,0,39,18.72L37,12.08A5,5,0,0,1,38,12a7,7,0,0,1,0,14Z"/></g></g></svg>