<?xml version="1.0" encoding="utf-8"?>
<!-- Generator: Adobe Illustrator 21.0.0, SVG Export Plug-In . SVG Version: 6.00 Build 0)  -->
<svg version="1.1" id="Vrstva_1" xmlns="http://www.w3.org/2000/svg" xmlns:xlink="http://www.w3.org/1999/xlink" x="0px" y="0px"
	 viewBox="0 0 200 200" style="enable-background:new 0 0 200 200;" xml:space="preserve">
<style type="text/css">
	.st0{fill:#E0EBEC;}
</style>
<path class="st0" d="M153.2,19.1c12.4,10.8,14.9,33.8,23.3,55.8c8.5,21.8,23.1,42.8,21.4,61.8c-1.6,19-19.5,35.9-39.3,45.2
	c-19.8,9.4-41.3,11.3-64.7,13.6c-23.3,2.3-48.3,5-59.3-7.2c-11.1-12.3-8.3-39.4-11.1-61.5s-10.9-39.2-13.1-61
	C8.3,43.9,12.3,17.3,27.4,7.3c15.3-10,41.7-3.4,66.3-0.7C118.1,9.4,140.8,8.1,153.2,19.1z"/>
</svg>
