<?xml version="1.0" encoding="utf-8"?>
<!-- Generator: Adobe Illustrator 21.0.0, SVG Export Plug-In . SVG Version: 6.00 Build 0)  -->
<svg version="1.1" id="Vrstva_1" xmlns="http://www.w3.org/2000/svg" xmlns:xlink="http://www.w3.org/1999/xlink" x="0px" y="0px"
	 viewBox="0 0 200 200" style="enable-background:new 0 0 200 200;" xml:space="preserve">
<style type="text/css">
	.st0{fill:#ECF5F6;}
</style>
<path class="st0" d="M151.1,38.2c6.6,11,11,18.9,18.5,26.7c7.4,7.9,17.9,15.6,22.8,26.2c4.9,10.5,4.3,23.9,3.9,44
	c-0.3,20.2-0.3,47-11.8,54.5c-11.7,7.5-34.9-4.2-50.8-16.9c-15.9-12.7-24.5-26.4-39.9-31.7s-37.6-2.3-55.4-9.8
	c-17.7-7.4-30.9-25.2-34-44.8C1.1,66.8,7.9,45.3,23.2,33.8c15.3-11.7,39.1-13.4,57.7-17.6s32-10.8,43.3-7.1
	C135.4,13,144.3,27.1,151.1,38.2z"/>
</svg>
