<?xml version="1.0" encoding="utf-8"?>
<!-- Generator: Adobe Illustrator 21.0.0, SVG Export Plug-In . SVG Version: 6.00 Build 0)  -->
<svg version="1.1" id="Vrstva_1" xmlns="http://www.w3.org/2000/svg" xmlns:xlink="http://www.w3.org/1999/xlink" x="0px" y="0px"
	 viewBox="0 0 200 200" style="enable-background:new 0 0 200 200;" xml:space="preserve">
<style type="text/css">
	.st0{fill:#F2F4F8;}
</style>
<path class="st0" d="M155,10.8c17.2,8.7,30.7,25.1,30.7,43.2c-0.1,18.1-13.6,38.1-17.6,55.6c-4.1,17.5,1.3,32.7,0.3,49
	c-1,16.3-8.4,33.8-21.5,38.2c-13.1,4.2-32-4.8-46.2-13c-14.2-8.1-23.5-15.6-38.5-18.9c-14.9-3.2-35.4-2.3-43.4-10.4
	c-8.1-8.1-3.7-25.3-0.3-40.5c3.6-15.2,6.2-28.4,10.2-43.6c3.9-15.2,9.1-32.4,20.6-44.6S78.3,6.4,97.6,3.6
	C116.9,0.6,137.7,1.9,155,10.8z"/>
</svg>
