<svg xmlns="http://www.w3.org/2000/svg" viewBox="0 0 1096 609.5"><defs><style>.cls-1{fill:#fff;}</style></defs><title>fitness-icon</title><g id="Vrstva_2" data-name="Vrstva 2"><g id="Vrstva_1-2" data-name="Vrstva 1"><path class="cls-1" d="M1037.28,233.37h-4V111.75a24.53,24.53,0,0,0-24.5-24.5h-54V26.83A26.85,26.85,0,0,0,927.92,0H878.57a26.86,26.86,0,0,0-26.83,26.83V233.37H244.24V26.83A26.85,26.85,0,0,0,217.42,0H168.07a26.86,26.86,0,0,0-26.83,26.83V87.25h-54a24.53,24.53,0,0,0-24.5,24.5V233.37h-4A58.77,58.77,0,0,0,0,292.08v5.58a58.77,58.77,0,0,0,58.71,58.71h4V497.75a24.53,24.53,0,0,0,24.5,24.5h54v60.42a26.87,26.87,0,0,0,26.83,26.83h49.35a26.86,26.86,0,0,0,26.82-26.83V356.37h607.5v226.3a26.87,26.87,0,0,0,26.83,26.83h49.35a26.86,26.86,0,0,0,26.82-26.83V522.25h54a24.53,24.53,0,0,0,24.5-24.5V356.37h4A58.78,58.78,0,0,0,1096,297.66v-5.58A58.78,58.78,0,0,0,1037.28,233.37Zm-978.57,98A33.75,33.75,0,0,1,25,297.66v-5.58a33.75,33.75,0,0,1,33.71-33.71h4v73Zm82,165.88h-53v-385h53v385Zm78.5,85.42a1.88,1.88,0,0,1-1.82,1.83H168.07a1.88,1.88,0,0,1-1.83-1.83V26.83A1.88,1.88,0,0,1,168.07,25h49.35a1.87,1.87,0,0,1,1.82,1.83V582.67Zm25-251.3v-73h607.5v73Zm685.5,251.3a1.88,1.88,0,0,1-1.82,1.83H878.57a1.88,1.88,0,0,1-1.83-1.83V26.83A1.88,1.88,0,0,1,878.57,25h49.35a1.87,1.87,0,0,1,1.82,1.83V582.67Zm78.5-85.42h-53v-385h53v385ZM1071,297.66a33.75,33.75,0,0,1-33.72,33.71h-4v-73h4A33.75,33.75,0,0,1,1071,292.08Z"/></g></g></svg>