<svg xmlns="http://www.w3.org/2000/svg" viewBox="0 0 297.24 106.7"><defs><style>.cls-1{fill:#fff;}</style></defs><title>Datový zdroj 1</title><g id="Vrstva_2" data-name="Vrstva 2"><g id="Vrstva_1-2" data-name="Vrstva 1"><path class="cls-1" d="M0,0H297.23V3.25H0ZM22.15,33v13H5.85V33H0V64.56H5.85V51h16.3V64.56H28V33ZM56.86,58.45a10.25,10.25,0,0,0,4-4,12,12,0,0,0,0-11.39,10.26,10.26,0,0,0-4-4,12.07,12.07,0,0,0-11.34,0,10.26,10.26,0,0,0-4,4,12,12,0,0,0,0,11.39,10.24,10.24,0,0,0,4,4,12,12,0,0,0,11.34,0M42.5,62.91a15.49,15.49,0,0,1-6.08-5.81,16.73,16.73,0,0,1,0-16.62,15.49,15.49,0,0,1,6.08-5.81,18,18,0,0,1,8.69-2.1,18,18,0,0,1,8.69,2.1A15.57,15.57,0,0,1,66,40.47a16.83,16.83,0,0,1,0,16.66,15.55,15.55,0,0,1-6.08,5.78A18,18,0,0,1,51.19,65a18,18,0,0,1-8.69-2.09M80.32,38H69.87V33H96.62v5H86.17V64.56H80.32Zm44.35,21.66v4.91H101V33h23v4.91H106.88v8.19H122.1V51H106.88v8.69ZM131.19,33H137V59.6h16.48v5H131.19Zm68.21,0L185.67,64.56h-5.76L166.13,33h6.35L183,57.35,193.55,33Zm27,26.61v4.91H202.73V33h23v4.91H208.59v8.19H223.8V51H208.59v8.69Zm27.92-11.21h5.54V61a17.57,17.57,0,0,1-5.67,3,21.77,21.77,0,0,1-6.66,1,18,18,0,0,1-8.69-2.09,15.56,15.56,0,0,1-6.08-5.79,16.82,16.82,0,0,1,0-16.66,15.5,15.5,0,0,1,6.1-5.78,18.19,18.19,0,0,1,8.76-2.1,19.15,19.15,0,0,1,7.2,1.31,14.18,14.18,0,0,1,5.45,3.83l-3.69,3.6a11.85,11.85,0,0,0-8.69-3.6,12.29,12.29,0,0,0-5.92,1.4A10.17,10.17,0,0,0,237.87,43a11.26,11.26,0,0,0-1.46,5.76,11.08,11.08,0,0,0,1.46,5.67,10.48,10.48,0,0,0,4.05,4,11.87,11.87,0,0,0,5.88,1.44,12.65,12.65,0,0,0,6.48-1.62Zm25.8-9.54L286,52.67H274.18ZM277.25,33,263.06,64.56h6l3.11-7.29H288l3.15,7.29h6.12L283,33ZM0,97.59H80.89V94.34H0Zm216.34,0h80.89V94.34H216.34ZM100.19,93.43H91.57l7,5.06-2.66,8.2,7-5.06,7,5.06-2.67-8.2,7-5.06h-8.61l-2.66-8.19Zm91.54,0h-8.61l7,5.06-2.66,8.2,7-5.06,7,5.06-2.66-8.2,7-5.06h-8.61l-2.67-8.19Zm-61,0h-8.61l7,5.06-2.66,8.2,7-5.06,7,5.06-2.66-8.2,7-5.06H136l-2.66-8.19Zm30.51,0H152.6l7,5.06-2.66,8.2,7-5.06,7,5.06-2.66-8.2,7-5.06h-8.61l-2.66-8.19Z"/></g></g></svg>