<svg xmlns="http://www.w3.org/2000/svg" viewBox="0 0 984.16 598.04"><defs><style>.cls-1{fill:#fff;}</style></defs><title>massage-icon</title><g id="Vrstva_2" data-name="Vrstva 2"><g id="Vrstva_1-2" data-name="Vrstva 1"><path class="cls-1" d="M510.73,569.76c0,.13.11.25.16.37l.83.11Z"/><path class="cls-1" d="M980.15,379.54c-27.1-31.13-69.63-52.63-123-62.17q-9.92-1.77-20.1-2.95,1.83-6.92,3.35-13.81c11.61-53,8-100.46-10.37-137.41l-2.72-5.47-6-1.21c-40.45-8.21-87.28.63-135.41,25.54a341.85,341.85,0,0,0-33.24,19.73,351.16,351.16,0,0,0-35-88c-30-52.82-73-92.55-120.92-111.87L492.08,0l-4.67,1.88c-48,19.32-90.89,59.05-120.92,111.87a351.16,351.16,0,0,0-35,88,341.85,341.85,0,0,0-33.24-19.73c-48.14-24.91-95-33.75-135.41-25.54l-6,1.21-2.72,5.47c-18.39,37-22,84.46-10.37,137.41q1.52,6.9,3.35,13.81-10.19,1.18-20.1,2.95c-53.35,9.54-95.88,31-123,62.17l-4,4.61,1.17,6c7.9,40.51,34,80.39,75.42,115.33S171.12,567.18,230.28,583a427.57,427.57,0,0,0,110.21,15l4.09,0v0h293V598q3,0,6.09,0a427.51,427.51,0,0,0,110.21-15c59.16-15.85,112.31-42.67,153.69-77.56S975.09,430.65,983,390.14l1.17-6ZM344.58,573c-34.82.41-71.33-4.32-107.82-14.1-55.65-14.91-105.46-40-144-72.52-34.37-29-57.48-62.47-65.65-95C50.39,367.34,87.14,349.89,131.39,342q11.37-2,23.13-3.22c13.89,40.2,35.61,80,63.94,116.94,36.15,47.13,79.68,85.08,126.12,110,1.45.77,2.9,1.54,4.35,2.29q4.59,2.37,9.16,4.55Q351.38,572.92,344.58,573Zm66.1-7.52a244.63,244.63,0,0,1-50.26-19.64q-8-4.12-15.84-8.81c-38.91-23.17-75.38-56.24-106.29-96.52-25.16-32.79-44.75-67.9-57.8-103.33q-4.56-12.36-8-24.74-2.43-8.6-4.3-17.17c-9.63-43.91-7.57-84.54,5.73-115.3,33.14-4.88,72.93,3.65,112.85,24.31a317.14,317.14,0,0,1,39.05,24,406.44,406.44,0,0,0-6.21,71.2q0,17.2,1.4,34.09,1.14,13.89,3.22,27.48c6.81,44.75,21.1,86.89,42.29,124.15A297,297,0,0,0,396,528a262.33,262.33,0,0,0,32.24,32.75Q419.71,563.42,410.68,565.46Zm100.21,4.67c0-.12-.11-.24-.16-.37l1,.48Zm17.83-19.6a194.26,194.26,0,0,1-20.36,13.26q-2.18,1.21-4.38,2.39c-1,.53-2,1.06-3.05,1.57q-4.38,2.22-8.85,4.17-4.47-2-8.85-4.17c-1-.51-2-1-3.05-1.57q-2.2-1.17-4.38-2.39a194.26,194.26,0,0,1-20.36-13.26A218.49,218.49,0,0,1,429.73,528c-38-38.75-65.79-94-78.1-156.19q-2.82-14.25-4.54-29a376.21,376.21,0,0,1,1.33-97q2.05-14.23,5.16-28C373.48,129.39,424.82,56.44,492.08,27c67.26,29.41,118.6,102.36,138.5,190.84q3.09,13.77,5.16,28a376.21,376.21,0,0,1,1.33,97q-1.71,14.68-4.54,29c-12.31,62.23-40.08,117.44-78.1,156.19A218.49,218.49,0,0,1,528.72,550.53Zm44.76,14.93q-9-2-17.55-4.67A262.33,262.33,0,0,0,588.17,528a297,297,0,0,0,29.5-42.84c21.19-37.26,35.48-79.4,42.29-124.15q2.07-13.59,3.22-27.48,1.4-16.87,1.4-34.09a406.44,406.44,0,0,0-6.21-71.2,317.14,317.14,0,0,1,39.05-24c39.92-20.66,79.71-29.19,112.85-24.31,13.3,30.76,15.36,71.39,5.73,115.3q-1.87,8.57-4.3,17.17-3.46,12.38-8,24.74c-13.05,35.43-32.64,70.54-57.8,103.33-31.44,41-68.63,74.48-108.29,97.69q-6.87,4-13.84,7.64A244.63,244.63,0,0,1,573.48,565.46Zm318-79.1c-38.59,32.53-88.4,57.61-144,72.52-37.19,10-74.4,14.69-109.82,14.07-3.86-.06-7.7-.18-11.51-.38q4.57-2.18,9.16-4.55l2.35-1.23C684.77,541.87,729,503.51,765.7,455.7c28.33-36.92,50-76.74,63.94-116.94q11.75,1.19,23.13,3.22c44.25,7.91,81,25.36,104.33,49.42C948.93,423.89,925.82,457.38,891.45,486.36Z"/><path class="cls-1" d="M511.72,570.24l-.83-.11c0-.12-.11-.24-.16-.37Z"/></g></g></svg>