<svg xmlns="http://www.w3.org/2000/svg" viewBox="0 0 36.56 32.39"><defs><style>.cls-1{fill:#fff;}</style></defs><title>Datový zdroj 5</title><g id="Vrstva_2" data-name="Vrstva 2"><g id="Vrstva_1-2" data-name="Vrstva 1"><path class="cls-1" d="M36.53,2.85a1.56,1.56,0,0,0-.84-.94c-.48-.28-1-.59-1.43-.89L33.57.57C32.2-.3,31.86-.22,31,1.15L29.1,3.94c-1.64,2.46-3.33,5-4.91,7.55a3.35,3.35,0,0,1-3.49,1.7c-1-.09-1.93-.24-2.87-.38s-1.64-.24-2.46-.33l-2.7-.32c-2.51-.31-5.1-.64-7.67-.7A4.7,4.7,0,0,0,.1,15.17c-.6,3.08,1.53,6,3.55,7.62a16.08,16.08,0,0,0,5.53,2.72,1.16,1.16,0,0,1,1,1.06,7.29,7.29,0,0,0,3.12,4.7,7,7,0,0,0,3.86,1.12,7.81,7.81,0,0,0,1.65-.18,7.17,7.17,0,0,0,5.37-8.54,2,2,0,0,1,.25-1.32c3.79-5.92,7.75-12.06,11.77-18.23A1.62,1.62,0,0,0,36.53,2.85ZM34,3.43,22.83,20.83A7.23,7.23,0,0,0,10.16,23.6c-.67-.2-2.9-1.11-3.17-1.24C5.43,21.57,2.75,19.82,2.26,17a3.11,3.11,0,0,1,.48-2.54,3.4,3.4,0,0,1,2.55-1h.45a38.72,38.72,0,0,1,5.07.37c1.45.19,2.92.42,4.34.65,1.72.27,3.5.56,5.26.77A5.28,5.28,0,0,0,26,12.61c1.37-2.26,2.87-4.5,4.32-6.66l1.78-2.67c.14-.21.29-.41.45-.62l.1-.13ZM17.12,30.28a5.1,5.1,0,0,1-4.95-5.09,5,5,0,0,1,5-5,5,5,0,0,1-.09,10.05Z"/><path class="cls-1" d="M17.09,28.09a.94.94,0,1,0,1.28.34A.93.93,0,0,0,17.09,28.09Z"/><path class="cls-1" d="M21.34,27.47a.94.94,0,0,0-1.37-1h0a.93.93,0,1,0,1.37,1Z"/><path class="cls-1" d="M14.18,27h0a.94.94,0,0,0-.34,1.28.93.93,0,0,0,1.28.34A.94.94,0,0,0,14.18,27Z"/><path class="cls-1" d="M18.05,25.11a.93.93,0,0,0-1,1.37.93.93,0,0,0,1.28.34.94.94,0,0,0,.34-1.28A.92.92,0,0,0,18.05,25.11Z"/><path class="cls-1" d="M21,25.12a.93.93,0,1,0-.81-.46A.93.93,0,0,0,21,25.12Z"/></g></g></svg>