<svg xmlns="http://www.w3.org/2000/svg" viewBox="0 0 695 835.23"><defs><style>.cls-1{fill:#fff;}</style></defs><title>sauna-icon</title><g id="Vrstva_2" data-name="Vrstva 2"><g id="Vrstva_1-2" data-name="Vrstva 1"><path class="cls-1" d="M656.5,305.23h-5.67l5.67-152.54a36.51,36.51,0,0,0-25.79-34.87c0-.69,0-1.39,0-2.09,0-20-10-38.63-28.08-52.38-17.08-13-39.6-20.12-63.42-20.12A114.93,114.93,0,0,0,513.92,46a97.09,97.09,0,0,0-20.28-20.56C472,9,443.48,0,413.25,0s-58.78,9-80.39,25.46q-3,2.25-5.7,4.64c-23.61-7.33-50.65-7-76.81,1a140.69,140.69,0,0,0-36.06,16.83,109.4,109.4,0,0,0-50-11.7c-23.82,0-46.34,7.15-63.42,20.12C82.72,70.1,72.75,88.7,72.75,108.73a60.93,60.93,0,0,0,.47,7.54A36.49,36.49,0,0,0,38.5,152.69l5.67,152.54H38.5A38.54,38.54,0,0,0,0,343.73L3,434a38.55,38.55,0,0,0,38.5,38.27h8.87L62.5,798.77A36.49,36.49,0,0,0,99,835.23H596a36.49,36.49,0,0,0,36.46-36.46l12.13-326.54h8.87A38.55,38.55,0,0,0,692,434l3-89.81v-.42A38.54,38.54,0,0,0,656.5,305.23Zm-25-152.54-5.67,152.54H511.62l4.28-119.36.91-25.44.69-19.2H620a11.28,11.28,0,0,1,4.54.94A11.47,11.47,0,0,1,631.5,152.69ZM620.56,447.23h-114l4.2-117H624.9ZM70.1,330.23H184.28l4.2,117h-114Zm134.23-138-.65-18-.52-14.53-.44-12.32-.22-6.15h133v164H208.38Zm266.78-51H492.5l-.28,7.91-.3,8.13-.72,20.25-4.58,127.71H359.5v-164H471.11Zm-261.83,189H335.5v117h-122Zm150.22,0H485.72l-4.2,117h-122Zm166-261a92.16,92.16,0,0,1,13.71-1c18.39,0,35.54,5.34,48.3,15,11.74,8.91,18.2,20.44,18.2,32.47,0,.17,0,.33,0,.5h-133c0-.17,0-.33,0-.5,0-12,6.46-23.56,18.2-32.47a67.75,67.75,0,0,1,10.7-6.62A80.55,80.55,0,0,1,525.54,69.25ZM413.25,25C445,25,473,36.94,489.14,55a91.63,91.63,0,0,0-13.31,8.38c-18.11,13.75-28.08,32.35-28.08,52.38,0,.17,0,.33,0,.5H386a74.93,74.93,0,0,0,1-12.37,71.78,71.78,0,0,0-3.15-21.07C378.79,66.11,367.95,52.1,352.61,42,368.67,31.43,389.95,25,413.25,25ZM257.67,55a115.78,115.78,0,0,1,33.74-5.18A99,99,0,0,1,309,51.37a89.06,89.06,0,0,1,14.86,4,74.26,74.26,0,0,1,9.64,4.31,61.15,61.15,0,0,1,13.57,9.77,47.25,47.25,0,0,1,13.36,46.78H191.82A66.58,66.58,0,0,1,203,92.36a89.32,89.32,0,0,1,12.38-13.81A104.21,104.21,0,0,1,236.3,63.88,118.55,118.55,0,0,1,257.67,55ZM116,76.26c12.76-9.69,29.91-15,48.3-15a87.73,87.73,0,0,1,28.42,4.59,109.87,109.87,0,0,0-10,11.92c-8.85,12.28-14.36,25.37-16.38,38.49H98.6a33.76,33.76,0,0,1-.85-7.5C97.75,96.7,104.21,85.17,116,76.26ZM63.5,152.69A11.47,11.47,0,0,1,75,141.23H177.5l.5,14,.49,13.71.41,11.4,4.48,124.92H69.17Zm-22,294.54A13.52,13.52,0,0,1,28,433.73l-3-90.18a13.52,13.52,0,0,1,13.5-13.32h6.6l4.34,117ZM99,810.23A11.47,11.47,0,0,1,87.5,798.77L75.37,472.23h114l12.13,338Zm127.54,0-12.13-338H335.5v338Zm242,0h-109v-338H480.63Zm139-11.46A11.47,11.47,0,0,1,596,810.23H493.5l12.13-338h114ZM667,433.31v.42a13.52,13.52,0,0,1-13.5,13.5h-7.94l4.34-117h6.6A13.52,13.52,0,0,1,670,343.55Z"/></g></g></svg>