<svg width="87" height="87" viewBox="0 0 87 87" fill="none" xmlns="http://www.w3.org/2000/svg">
<path d="M77.2719 16.7346C70.3876 7.95084 60.3774 2.1647 49.3299 0.583535V0.399302L45.9216 0.184363L43.1888 0.000130443C33.532 -0.0236502 24.1485 3.20475 16.5505 9.16504C8.95252 15.1253 3.58271 23.4703 1.30649 32.855L0.815205 35.5264L0.0168627 38.9347H0.231801C-0.92456 50.0277 2.2757 61.1359 9.15671 69.9133C16.0377 78.6908 26.0608 84.4503 37.1091 85.9755V86.1597L40.5481 86.3747L43.2809 86.5589C52.9106 86.5756 62.2671 83.3584 69.8503 77.4232C77.4336 71.488 82.8044 63.1785 85.1018 53.8268L85.593 51.1555L86.2072 47.7779H86.0229C87.213 36.6892 84.0782 25.5691 77.2719 16.7346ZM79.4827 47.1638L77.9474 46.8874L75.798 46.3961L74.2627 45.9662L72.2055 45.26L70.6395 44.6459L68.6743 43.7554L67.354 42.9878L65.481 41.8824L64.1913 41.0534C63.5772 40.6235 62.9631 40.1629 62.3797 39.7023L61.2129 38.8119C60.5681 38.2592 59.954 37.6758 59.3706 37.0924L58.3573 36.2326L57.8967 35.6799L74.1399 22.9985C78.8347 30.1549 80.9169 38.7118 80.0354 47.2252L79.4827 47.1638ZM70.271 18.1778L54.1813 30.7056L53.7822 30.1222C53.5672 29.7845 53.383 29.3853 53.1681 29.0475C52.9531 28.7098 52.2162 27.6351 51.9398 26.9903C51.6635 26.3454 51.5407 26.0998 51.3257 25.6392C51.1108 25.1786 50.7116 24.2575 50.4353 23.5512C50.1589 22.845 50.0975 22.5687 49.944 22.0467C49.7905 21.5247 49.5141 20.6649 49.3299 19.9894C49.1456 19.3139 49.1456 18.9454 48.9921 18.4234C48.8386 17.9014 48.7158 17.0417 48.5929 16.3354C48.4701 15.6292 48.4394 15.2608 48.378 14.7388C48.3166 14.2168 48.378 13.3263 48.1938 12.6201C48.0095 11.9139 48.1938 11.5454 48.1938 10.9927C48.1938 10.44 48.1938 9.54954 48.1938 8.8126C48.1938 8.07567 48.1938 7.76862 48.1938 7.21592C48.1938 6.66322 48.1938 6.81675 48.1938 6.60181C56.7204 7.77149 64.5772 11.8627 70.4245 18.1778H70.271ZM42.1448 6.78604C42.1448 7.36945 42.1448 7.95285 42.1448 8.53625C42.1448 9.11966 42.1448 10.2865 42.1448 11.1769C42.1448 12.0674 42.1448 12.3744 42.1448 12.9886C42.1448 13.6027 42.1448 14.6774 42.3597 15.5371C42.5747 16.3969 42.5133 16.7346 42.6054 17.3487C42.6975 17.9628 42.8817 19.0068 43.066 19.8359C43.2502 20.6649 43.3423 21.0334 43.4958 21.6168C43.6494 22.2002 43.9564 23.2442 44.2328 24.0732C44.5091 24.9023 44.6012 25.2093 44.8162 25.762C45.0311 26.3147 45.4917 27.3894 45.8294 28.2185C46.1672 29.0475 46.29 29.2625 46.5357 29.7537C46.7813 30.245 47.4568 31.4733 47.9481 32.333C48.4394 33.1928 48.4087 33.1621 48.6544 33.5919L49.3913 34.6973L43.7722 39.0882L22.8617 12.2823C28.6033 8.47914 35.2918 6.35246 42.1755 6.14123C42.1448 6.41758 42.1448 6.60181 42.1448 6.78604ZM18.0103 15.9977L38.8593 42.7115L33.2402 47.1023L32.3497 46.1198L31.3058 45.1372C30.5995 44.4617 29.8933 43.7862 29.1564 43.1413L27.836 42.0974C27.1298 41.5447 26.4543 41.0227 25.7174 40.5007L24.2128 39.5181C23.5066 39.0575 22.7696 38.6276 22.0327 38.2285L20.4053 37.3994L18.1331 36.3554L16.4443 35.6799L14.0493 34.8509L12.2991 34.3903C11.4393 34.1753 10.6103 33.9911 9.7198 33.8069L8.00029 33.4691H7.44759C9.26836 26.7998 12.9287 20.7773 18.0103 16.0898V15.9977ZM6.31149 39.4567H6.9256L8.49158 39.7637L10.641 40.255L12.1762 40.6849L14.2335 41.3911L15.7074 41.9745L17.6725 42.865L19.085 43.6019L20.958 44.7073L22.2476 45.5364C22.8617 45.9662 23.4759 46.4268 24.0593 46.8874L25.2261 47.7779C25.8709 48.3306 26.4543 48.914 27.0684 49.4974L27.9589 50.3571L28.4194 50.8791L12.2991 63.6526C7.5672 56.5215 5.45141 47.9716 6.31149 39.4567ZM15.9837 68.5041L32.1962 55.8534L32.5954 56.4368C32.8103 56.7746 32.9946 57.143 33.2095 57.5115C33.4244 57.88 34.0385 58.9547 34.4377 59.7223C34.8369 60.4899 34.8369 60.6128 35.0518 61.0733C35.2668 61.5339 35.6659 62.4551 35.9423 63.1613C36.2186 63.8675 36.28 64.1439 36.4336 64.6352C36.5871 65.1265 36.8941 66.0169 37.0784 66.7231C37.2626 67.4294 37.324 67.7671 37.4468 68.2584C37.5697 68.7497 37.7232 69.6709 37.846 70.3771C37.9688 71.0833 37.9995 71.4211 38.061 71.9738C38.1224 72.5265 38.061 73.4169 38.2452 74.1232C38.4294 74.8294 38.2452 75.1979 38.2452 75.7199C38.2452 76.2419 38.2452 77.1937 38.2452 77.9306C38.2452 78.6676 38.2452 78.9746 38.2452 79.4966C38.2452 80.0186 38.2452 79.8958 38.2452 80.1107C29.7035 78.9396 21.8343 74.8367 15.9837 68.5041ZM44.2635 79.8344C44.2635 79.2203 44.2635 78.6369 44.2635 78.0228C44.2635 77.4087 44.2635 76.3033 44.2635 75.4742C44.2635 74.6452 44.2635 74.246 44.2635 73.6012C44.2635 72.9564 44.2635 71.9431 44.0485 71.114C43.8336 70.285 43.895 69.8858 43.7722 69.2717C43.6494 68.6576 43.4958 67.6443 43.3116 66.846C43.1274 66.0476 43.0352 65.6485 42.8817 65.0343C42.7282 64.4202 42.4211 63.407 42.1448 62.6086C41.8684 61.8103 41.7763 61.4418 41.5614 60.8891C41.3464 60.3364 40.8859 59.2617 40.5481 58.4634C40.2103 57.665 40.0875 57.4194 39.8419 56.8974C39.5962 56.3754 38.9207 55.1779 38.4294 54.3488C37.9381 53.5198 37.9688 53.4891 37.7232 53.0899L36.9863 51.9845L42.6054 47.5936L63.4851 74.3074C57.7478 78.1195 51.0567 80.247 44.1714 80.4485C44.2328 80.2643 44.2328 80.08 44.2635 79.8344ZM68.3673 70.6227L47.4875 43.909L53.1066 39.5181L53.9971 40.5007L55.0411 41.4832C55.7473 42.1588 56.4535 42.8343 57.1905 43.4791L58.5108 44.5231C59.217 45.0758 59.9233 45.6285 60.6295 46.1198L62.1341 47.0716C62.871 47.5322 63.5772 47.9621 64.3449 48.392L65.9415 49.221L68.2444 50.2957L69.9333 50.9712L72.359 51.8003L74.0785 52.3223C74.9382 52.5372 75.798 52.7214 76.6578 52.9057L78.3773 53.2434H78.8993C77.0779 59.9053 73.4299 65.9251 68.3673 70.6227Z" fill="white" fill-opacity="0.3"/>
</svg>
