<svg width="123" height="109" viewBox="0 0 123 109" fill="none" xmlns="http://www.w3.org/2000/svg">
<path d="M122.923 9.58393C122.698 8.88911 122.33 8.24892 121.843 7.70431C121.357 7.15969 120.762 6.72264 120.097 6.4211C118.482 5.47899 116.732 4.43593 115.285 3.42651L112.963 1.9124C108.354 -1.0149 107.21 -0.745723 104.316 3.86393L97.9232 13.2515C92.4051 21.5286 86.7187 30.075 81.4025 38.655C80.2813 40.7096 78.5483 42.3643 76.444 43.3893C74.3398 44.4143 71.9686 44.7588 69.6597 44.375C66.2949 44.0722 63.1658 43.5675 60.0029 43.0964C56.8401 42.6254 54.4848 42.2889 51.7258 41.9861L42.6411 40.9094C34.1956 39.8663 25.481 38.7559 16.8337 38.5541C13.0448 38.309 9.29415 39.4353 6.26706 41.7273C3.23997 44.0192 1.13853 47.3237 0.346685 51.0371C-1.67214 61.4004 5.49469 71.2254 12.2914 76.6762C17.8456 80.898 24.1639 84.0057 30.8982 85.8282C31.7822 85.9486 32.5983 86.3682 33.2105 87.0172C33.8228 87.6662 34.1942 88.5053 34.2629 89.3948C34.8744 92.596 36.1177 95.6432 37.9202 98.3585C39.7226 101.074 42.0481 103.403 44.7608 105.209C48.6286 107.708 53.144 109.018 57.7486 108.977C59.6154 108.973 61.4765 108.77 63.3004 108.372C69.4899 106.928 74.8596 103.1 78.2428 97.7196C81.626 92.3392 82.7494 85.8411 81.3688 79.6371C81.1287 78.104 81.4259 76.5349 82.21 75.1957C94.9622 55.2767 108.286 34.6174 121.813 13.8571C122.285 13.2617 122.629 12.5739 122.82 11.838C123.011 11.102 123.046 10.3342 122.923 9.58393ZM114.41 11.5355L76.8265 70.0814C73.9949 66.5315 70.2263 63.8451 65.9471 62.326C61.668 60.8069 57.049 60.5158 52.613 61.4856C48.1769 62.4554 44.1009 64.6475 40.846 67.8137C37.5912 70.98 35.2875 74.994 34.1956 79.4016C31.9413 78.7287 24.438 75.6668 23.5295 75.2294C18.2806 72.5713 9.26316 66.683 7.61445 57.1945C7.25509 55.7375 7.21332 54.2202 7.49198 52.7456C7.77065 51.271 8.36322 49.8736 9.22951 48.6482C10.3481 47.523 11.6886 46.6428 13.1657 46.0636C14.6428 45.4843 16.2242 45.2187 17.8095 45.2835H19.3236C25.0311 45.3243 30.7298 45.7402 36.3827 46.5284C41.2615 47.1677 46.2076 47.9416 50.9855 48.7155C56.7728 49.6239 62.762 50.5997 68.6839 51.3063C72.3548 51.9901 76.1478 51.5 79.5242 49.9054C82.9006 48.3108 85.6887 45.6929 87.4926 42.4235C92.1022 34.8192 97.1493 27.2823 102.028 20.0145L108.017 11.0308C108.488 10.3242 108.993 9.65122 109.531 8.94463L109.868 8.50722L114.41 11.5355ZM57.614 101.878C53.1567 101.747 48.9256 99.8856 45.8167 96.6889C42.7079 93.4921 40.9655 89.2107 40.9587 84.7515C40.9587 80.2896 42.7312 76.0105 45.8862 72.8555C49.0412 69.7004 53.3204 67.928 57.7822 67.928C62.2664 67.9681 66.551 69.788 69.6934 72.9872C72.8358 76.1863 74.5786 80.5028 74.5385 84.987C74.4983 89.4712 72.6785 93.7558 69.4793 96.8982C66.2801 100.041 61.9636 101.783 57.4794 101.743L57.614 101.878Z" fill="white" fill-opacity="0.3"/>
<path d="M57.5131 94.5091C56.97 94.8216 56.5319 95.2882 56.2544 95.85C55.977 96.4118 55.8726 97.0433 55.9546 97.6645C56.0365 98.2856 56.3011 98.8685 56.7148 99.339C57.1285 99.8096 57.6727 100.147 58.2782 100.308C58.8838 100.468 59.5235 100.446 60.1161 100.242C60.7088 100.039 61.2278 99.6646 61.6072 99.1659C61.9866 98.6673 62.2094 98.0673 62.2472 97.4419C62.2851 96.8164 62.1364 96.1939 61.8199 95.6531C61.6143 95.2931 61.3393 94.9774 61.0107 94.7246C60.6821 94.4718 60.3065 94.2868 59.9058 94.1803C59.505 94.0739 59.0872 94.0481 58.6764 94.1046C58.2657 94.161 57.8702 94.2985 57.5131 94.5091Z" fill="white" fill-opacity="0.3"/>
<path d="M71.8131 92.4235C71.9226 91.8367 71.8639 91.231 71.6437 90.6762C71.4235 90.1214 71.0508 89.6402 70.5687 89.2883C70.0866 88.9364 69.5147 88.7281 68.9192 88.6875C68.3237 88.6469 67.7289 88.7756 67.2034 89.0588C66.7492 89.3173 66.367 89.6854 66.0916 90.1295C65.8163 90.5737 65.6565 91.0797 65.627 91.6015C65.5974 92.1232 65.699 92.6441 65.9225 93.1165C66.1459 93.5889 66.4841 93.9978 66.9062 94.3059C67.3284 94.614 67.8209 94.8115 68.3389 94.8803C68.857 94.9492 69.384 94.8872 69.8719 94.7C70.3598 94.5128 70.7931 94.2064 71.1322 93.8088C71.4713 93.4111 71.7054 92.9349 71.8131 92.4235Z" fill="white" fill-opacity="0.3"/>
<path d="M47.7218 90.8417C47.0013 91.2634 46.4768 91.9527 46.2625 92.7595C46.0482 93.5662 46.1615 94.425 46.5778 95.1486C46.7833 95.5086 47.0584 95.8242 47.387 96.0771C47.7156 96.3299 48.0912 96.5149 48.4919 96.6214C48.8926 96.7278 49.3105 96.7535 49.7212 96.6971C50.132 96.6407 50.5274 96.5031 50.8846 96.2926C51.5323 95.8376 51.9859 95.1564 52.1558 94.3833C52.3258 93.6103 52.1996 92.8016 51.8024 92.117C51.4052 91.4324 50.7657 90.9216 50.0102 90.6855C49.2547 90.4494 48.4382 90.5051 47.7218 90.8417Z" fill="white" fill-opacity="0.3"/>
<path d="M60.7432 84.4823C60.1534 84.358 59.5402 84.4067 58.9774 84.6227C58.4146 84.8386 57.9261 85.2124 57.5707 85.6993C57.2153 86.1862 57.0081 86.7654 56.974 87.3673C56.9399 87.9691 57.0804 88.568 57.3785 89.0919C57.5841 89.452 57.8592 89.7676 58.1878 90.0204C58.5164 90.2733 58.892 90.4583 59.2927 90.5647C59.6934 90.6711 60.1113 90.6969 60.522 90.6404C60.9328 90.584 61.3282 90.4465 61.6854 90.2359C62.4058 89.8143 62.9303 89.1249 63.1446 88.3182C63.3589 87.5114 63.2456 86.6526 62.8294 85.9291C62.6037 85.5542 62.301 85.2314 61.9414 84.982C61.5819 84.7326 61.1735 84.5623 60.7432 84.4823Z" fill="white" fill-opacity="0.3"/>
<path d="M70.6691 84.5156C71.3576 84.51 72.0252 84.2775 72.5682 83.8541C73.1112 83.4306 73.4993 82.8399 73.6725 82.1735C73.8457 81.507 73.7942 80.802 73.526 80.1678C73.2578 79.5336 72.7879 79.0055 72.1892 78.6655C71.5904 78.3254 70.8962 78.1924 70.2141 78.287C69.5321 78.3816 68.9002 78.6985 68.4166 79.1886C67.9329 79.6787 67.6244 80.3147 67.5389 80.998C67.4534 81.6812 67.5957 82.3736 67.9437 82.9678C68.2217 83.4427 68.6201 83.8358 69.0986 84.1075C69.5771 84.3793 70.1188 84.52 70.6691 84.5156Z" fill="white" fill-opacity="0.3"/>
</svg>
