<svg xmlns="http://www.w3.org/2000/svg" viewBox="0 0 28 28"><defs><style>.cls-1{fill:#fff;opacity:0.3;}</style></defs><title>sport-icon-5</title><g id="Vrstva_2" data-name="Vrstva 2"><g id="Vrstva_1-2" data-name="Vrstva 1"><path class="cls-1" d="M14,0A14,14,0,1,0,28,14,14,14,0,0,0,14,0ZM2,14a12,12,0,0,1,.37-2.92,10.77,10.77,0,0,1,.7-1.16c.1-.13.18-.28.29-.41l2.91,1.72v.07A22.41,22.41,0,0,0,6.73,16v0L4.48,19.51l-.15-.08a8.93,8.93,0,0,1-1.58-1.25A11.92,11.92,0,0,1,2,14ZM24.88,9A12.29,12.29,0,0,0,22.7,7.81l-.39-.14-3.8-4.28a4.82,4.82,0,0,0,0-.48A12.06,12.06,0,0,1,24.88,9ZM13.68,4c.85-.09,1.7-.18,2.55-.23a12.39,12.39,0,0,1,1.57,0l3.86,4.35c-.13.42-.26.84-.42,1.25-.27.72-.56,1.43-.85,2.15l-5.6.57-.21-.26-2-2.24,0,0-.8-.8,1.56-4.69ZM11.94,17.58l2.7,4.67q-.7,1-1.43,2l-.26.31-5.75-1a18,18,0,0,1-1.8-2.61c-.13-.23-.28-.46-.39-.71l2.25-3.53.17,0a37.25,37.25,0,0,0,4.29.86Zm.62-.56,1.29-2.41L14.71,13l5.75-.59a32,32,0,0,1,2,3.2l.32.62-2.78,5.19h0a25.43,25.43,0,0,1-4.55.44ZM10.18,2.63a9.66,9.66,0,0,1,2.39,1.26L11.11,8.28h0c-.3.12-.6.23-.9.37a25.68,25.68,0,0,0-3.5,1.89L3.83,8.84a.87.87,0,0,1,.05-.26c.19-.51.38-1,.6-1.53.13-.29.28-.57.43-.85A12,12,0,0,1,10.18,2.63ZM14,26a11.92,11.92,0,0,1-5.79-1.5l4.66.83.12.07a11.11,11.11,0,0,0,1.37.58Zm6.64-4.21,2.88-5.37a13.45,13.45,0,0,0,2.27-1.28,1,1,0,0,0,.16-.15,12,12,0,0,1-4.89,8.69A11.08,11.08,0,0,0,20.64,21.79Z"/></g></g></svg>