<svg width="110" height="118" viewBox="0 0 110 118" fill="none" xmlns="http://www.w3.org/2000/svg">
<path d="M60.5609 15.6594C45.7186 -0.752752 22.8843 -4.23498 9.35493 7.8672C-4.17441 19.9694 -2.80435 43.1748 12.0094 59.5869C17.0105 65.1756 23.287 69.4742 30.3054 72.1172C33.0717 73.1394 35.944 73.8479 38.8683 74.2294C41.7226 74.6005 44.5769 74.4863 47.6024 75.0001C50.8224 75.6804 53.8896 76.9479 56.6505 78.7392C62.8843 82.6542 68.51 87.4626 73.3481 93.0107L92.3006 114.047C93.1182 115.116 94.1493 116.004 95.3284 116.653C96.5075 117.302 97.8089 117.699 99.1497 117.819C100.49 117.938 101.841 117.777 103.117 117.346C104.392 116.915 105.564 116.224 106.557 115.316C107.551 114.408 108.345 113.303 108.888 112.071C109.432 110.84 109.713 109.509 109.715 108.162C109.716 106.816 109.437 105.485 108.896 104.252C108.355 103.019 107.564 101.913 106.572 101.003L87.591 80.0236C82.5346 74.7376 78.327 68.7007 75.1177 62.1272C73.5975 58.834 72.5777 55.3322 72.0922 51.7376C71.607 47.8273 72.5489 43.974 72.0922 40.1207C70.8061 30.9897 66.786 22.462 60.5609 15.6594ZM17.033 55.0486C4.67389 41.4051 3.27529 22.4812 13.8932 12.8907C24.5112 3.30034 43.2068 6.55423 55.5373 20.1977C67.8679 33.8412 69.295 52.7652 58.677 62.3841C48.0591 72.0031 29.3635 68.6921 17.033 55.0486ZM101.691 105.484C101.952 105.773 102.153 106.11 102.283 106.476C102.413 106.842 102.47 107.231 102.45 107.619C102.43 108.007 102.334 108.388 102.167 108.739C102 109.09 101.766 109.405 101.477 109.665C101.188 109.926 100.851 110.127 100.485 110.257C100.119 110.387 99.7303 110.444 99.342 110.424C98.9537 110.405 98.5731 110.308 98.222 110.141C97.8709 109.974 97.5561 109.74 97.2956 109.451L69.8088 79.0817C69.2827 78.4913 69.0126 77.716 69.0581 76.9264C69.1036 76.1369 69.4609 75.3978 70.0514 74.8716C70.6418 74.3455 71.4171 74.0755 72.2067 74.121C72.9962 74.1665 73.7353 74.5238 74.2615 75.1143L101.691 105.484ZM70.4367 67.5219C68.5839 67.8082 66.8557 68.6313 65.4657 69.8893C64.0757 71.1474 63.085 72.7853 62.616 74.6005C60.9054 73.4484 59.1331 72.3907 57.307 71.4322C61.6128 69.286 65.2463 65.9981 67.8108 61.9274C68.5835 63.8387 69.4601 65.7063 70.4367 67.5219Z" fill="white" fill-opacity="0.3"/>
</svg>
