<svg width="1440" height="346" viewBox="0 0 1440 346" fill="none" xmlns="http://www.w3.org/2000/svg">
<path fill-rule="evenodd" clip-rule="evenodd" d="M0 0L34.8 28.8333C68.4 57.6667 136.8 115.333 205.2 115.333C274.8 115.333 343.2 57.6667 411.6 50.4583C480 43.25 548.4 86.5 616.8 108.125C685.2 129.75 754.8 129.75 823.2 108.125C891.6 86.5 960 43.25 1028.4 64.875C1096.8 86.5 1165.2 173 1234.8 173C1303.2 173 1371.6 86.5 1405.2 43.25L1440 0V346H1405.2C1371.6 346 1303.2 346 1234.8 346C1165.2 346 1096.8 346 1028.4 346C960 346 891.6 346 823.2 346C754.8 346 685.2 346 616.8 346C548.4 346 480 346 411.6 346C343.2 346 274.8 346 205.2 346C136.8 346 68.4 346 34.8 346H0V0Z" fill="#E0EBEC"/>
</svg>
