<svg xmlns="http://www.w3.org/2000/svg" viewBox="0 0 1071 694"><defs><style>.cls-1{fill:#fff;}</style></defs><title>wave-lines</title><g id="Vrstva_2" data-name="Vrstva 2"><g id="Vrstva_1-2" data-name="Vrstva 1"><path class="cls-1" d="M1058.5,393.5c-34.82,0-52.24-20.39-67.62-38.38-14.14-16.55-25.31-29.62-48.61-29.62s-34.47,13.07-48.61,29.62c-15.37,18-32.8,38.38-67.62,38.38s-52.24-20.39-67.61-38.38c-14.14-16.55-25.31-29.62-48.61-29.62s-34.47,13.07-48.61,29.62c-15.37,18-32.8,38.38-67.61,38.38S541.36,373.11,526,355.12c-14.14-16.55-25.31-29.62-48.61-29.62s-34.46,13.07-48.61,29.62c-15.37,18-32.8,38.38-67.61,38.38s-52.24-20.39-67.61-38.38c-14.14-16.55-25.31-29.62-48.61-29.62s-34.46,13.07-48.61,29.62c-15.37,18-32.8,38.38-67.61,38.38s-52.24-20.39-67.61-38.38C47,338.57,35.79,325.5,12.5,325.5a12.5,12.5,0,0,1,0-25c34.82,0,52.24,20.39,67.61,38.38,14.14,16.55,25.31,29.62,48.61,29.62s34.46-13.07,48.61-29.62c15.37-18,32.8-38.38,67.61-38.38s52.24,20.39,67.61,38.38c14.14,16.55,25.31,29.62,48.61,29.62s34.46-13.07,48.61-29.62c15.37-18,32.8-38.38,67.61-38.38s52.24,20.39,67.61,38.38c14.14,16.55,25.31,29.62,48.61,29.62s34.47-13.07,48.61-29.62c15.37-18,32.8-38.38,67.61-38.38s52.24,20.39,67.61,38.38c14.14,16.55,25.31,29.62,48.61,29.62s34.47-13.07,48.61-29.62c15.37-18,32.8-38.38,67.62-38.38s52.24,20.39,67.62,38.38c14.14,16.55,25.31,29.62,48.61,29.62a12.5,12.5,0,0,1,0,25ZM986,681.5A12.5,12.5,0,0,0,973.5,669c-17,0-25.74-10.93-38.5-28.78C922.49,622.75,906.92,601,876.16,601s-46.33,21.75-58.83,39.22C804.56,658.07,795.87,669,778.82,669s-25.73-10.93-38.5-28.78C727.81,622.75,712.25,601,681.49,601s-46.32,21.75-58.83,39.23C609.89,658.07,601.2,669,584.16,669s-25.73-10.93-38.5-28.77C533.15,622.75,517.58,601,486.82,601S440.5,622.75,428,640.23C415.23,658.07,406.54,669,389.49,669s-25.73-10.93-38.5-28.77C338.48,622.75,322.92,601,292.16,601s-46.32,21.75-58.83,39.23C220.56,658.07,211.87,669,194.83,669s-25.73-10.93-38.5-28.78C143.82,622.75,128.26,601,97.5,601a12.5,12.5,0,0,0,0,25c17,0,25.73,10.93,38.5,28.77C148.51,672.25,164.07,694,194.83,694s46.32-21.75,58.83-39.23c12.77-17.84,21.46-28.77,38.5-28.77s25.73,10.93,38.5,28.77C343.17,672.25,358.73,694,389.49,694s46.32-21.75,58.83-39.22c12.77-17.84,21.46-28.78,38.5-28.78s25.73,10.93,38.5,28.78C537.83,672.25,553.4,694,584.16,694s46.32-21.75,58.83-39.22c12.77-17.84,21.46-28.78,38.5-28.78s25.73,10.93,38.5,28.78C732.5,672.25,748.06,694,778.82,694s46.33-21.75,58.83-39.22c12.77-17.84,21.46-28.78,38.5-28.78s25.74,10.93,38.5,28.78C927.17,672.25,942.74,694,973.5,694A12.5,12.5,0,0,0,986,681.5Zm0-601A12.5,12.5,0,0,0,973.5,68c-17,0-25.74-10.93-38.5-28.77C922.49,21.75,906.92,0,876.16,0s-46.33,21.75-58.83,39.23C804.56,57.07,795.87,68,778.82,68s-25.73-10.93-38.5-28.77C727.81,21.75,712.25,0,681.49,0s-46.32,21.75-58.83,39.23C609.89,57.07,601.2,68,584.16,68s-25.73-10.93-38.5-28.77C533.15,21.75,517.58,0,486.82,0S440.5,21.75,428,39.23C415.23,57.07,406.54,68,389.49,68S363.76,57.07,351,39.23C338.48,21.75,322.92,0,292.16,0s-46.32,21.75-58.83,39.23C220.56,57.07,211.87,68,194.83,68s-25.73-10.93-38.5-28.77C143.82,21.75,128.26,0,97.5,0a12.5,12.5,0,0,0,0,25c17,0,25.73,10.93,38.5,28.77C148.51,71.25,164.07,93,194.83,93s46.32-21.75,58.83-39.23C266.43,35.93,275.12,25,292.16,25s25.73,10.93,38.5,28.77C343.17,71.25,358.73,93,389.49,93s46.32-21.75,58.83-39.23C461.09,35.93,469.78,25,486.82,25s25.73,10.93,38.5,28.77C537.83,71.25,553.4,93,584.16,93S630.48,71.25,643,53.77C655.76,35.93,664.45,25,681.49,25S707.22,35.93,720,53.77C732.5,71.25,748.06,93,778.82,93s46.33-21.75,58.83-39.22C850.43,35.93,859.12,25,876.16,25s25.74,10.93,38.5,28.77C927.17,71.25,942.74,93,973.5,93A12.5,12.5,0,0,0,986,80.5Z"/></g></g></svg>