<svg xmlns="http://www.w3.org/2000/svg" viewBox="0 0 2193 332.84"><defs><style>.cls-1{fill:#e0ebec;}</style></defs><title>wave-2-down</title><g id="Vrstva_2" data-name="Vrstva 2"><g id="Vrstva_1-2" data-name="Vrstva 1"><path class="cls-1" d="M1645.62,11.69C1461.49,43.44,1279,148.6,1096.58,148.6S731.66,43.44,549,11.56C364.92-20.2,182.46,21.19,92,43.44L0,64.2V332.84l53-28.4C104.17,276,208.33,219.21,312.5,219.21c106,0,210.16,56.81,314.33,63.91s208.33-35.51,312.5-56.81a780.74,780.74,0,0,1,314.33,0c104.17,21.3,208.33,63.91,312.5,42.6S1774.5,162.4,1880.5,162.4c104.17,0,208.33,85.22,259.5,127.83l53,42.61V64.34l-92-20.76C2010.54,21.19,1828.08-20.2,1645.62,11.69Z"/></g></g></svg>