<svg width="1440" height="316" viewBox="0 0 1440 316" fill="none" xmlns="http://www.w3.org/2000/svg">
<path fill-rule="evenodd" clip-rule="evenodd" d="M0 57.4545L48 86.1818C96 114.909 192 172.364 288 143.636C384 114.909 480 0 576 0C672 0 768 114.909 864 136.455C960 158 1056 86.1818 1152 79C1248 71.8182 1344 129.273 1392 158L1440 186.727V316H1392C1344 316 1248 316 1152 316C1056 316 960 316 864 316C768 316 672 316 576 316C480 316 384 316 288 316C192 316 96 316 48 316H0V57.4545Z" fill="#ECF5F6"/>
</svg>
