<svg xmlns="http://www.w3.org/2000/svg" viewBox="0 0 1118.5 737.56"><defs><style>.cls-1{fill:#fff;}</style></defs><title>wind</title><g id="Vrstva_2" data-name="Vrstva 2"><g id="Vrstva_1-2" data-name="Vrstva 1"><path class="cls-1" d="M504.5,382.56H12.5A12.5,12.5,0,0,1,0,370.06v-1a12.5,12.5,0,0,1,12.5-12.5H496.6a12.62,12.62,0,0,1,2.56-.13c1.76.09,3.56.13,5.35.13a108,108,0,1,0,0-216c-50.37,0-94.74,35.65-105.49,84.78a12.5,12.5,0,0,1-14.89,9.54l-1-.21a12.5,12.5,0,0,1-9.54-14.88A134,134,0,0,1,504.5,114.56c73.89,0,134,60.11,134,134S578.39,382.56,504.5,382.56ZM898.95,0A219.61,219.61,0,0,0,684.49,172.39,12.5,12.5,0,0,0,694,187.28l1.66.36a12.5,12.5,0,0,0,14.88-9.54C729.77,90.38,809,26.7,898.95,26.7c106.34,0,192.85,86.51,192.85,192.85s-86.51,192.85-192.85,192.85c-3.2,0-6.42-.08-9.55-.24a12.34,12.34,0,0,0-3.13.24H60.5A12.5,12.5,0,0,0,48,424.91v1.7a12.5,12.5,0,0,0,12.5,12.5H898.95c121.06,0,219.55-98.49,219.55-219.55S1020,0,898.95,0ZM726,469.56H234a12.5,12.5,0,0,0-12.5,12.5v1a12.5,12.5,0,0,0,12.5,12.5H718.1a12.49,12.49,0,0,0,2.55.13c1.77-.09,3.57-.13,5.35-.13a108,108,0,0,1,0,216c-50.37,0-94.74-35.66-105.49-84.78a12.5,12.5,0,0,0-14.9-9.54l-1,.21a12.5,12.5,0,0,0-9.53,14.88A134,134,0,0,0,726,737.56c73.89,0,134-60.11,134-134S799.89,469.56,726,469.56Z"/></g></g></svg>